<svg width="17" height="18" viewBox="0 0 17 18" fill="none" xmlns="http://www.w3.org/2000/svg">
<path d="M12.025 12.475C11.875 12.3083 11.8 12.125 11.8 11.925C11.8 11.725 11.875 11.55 12.025 11.4L13.925 9.5H6.275C6.05833 9.5 5.87933 9.429 5.738 9.287C5.596 9.14567 5.525 8.96667 5.525 8.75C5.525 8.53333 5.596 8.354 5.738 8.212C5.87933 8.07067 6.05833 8 6.275 8H13.925L12.025 6.075C11.875 5.925 11.8 5.75 11.8 5.55C11.8 5.35 11.875 5.175 12.025 5.025C12.175 4.875 12.35 4.8 12.55 4.8C12.75 4.8 12.9167 4.86667 13.05 5L16.175 8.125C16.2583 8.20833 16.321 8.304 16.363 8.412C16.4043 8.52067 16.425 8.63333 16.425 8.75C16.425 8.86667 16.4043 8.979 16.363 9.087C16.321 9.19567 16.2583 9.29167 16.175 9.375L13.05 12.5C12.9 12.6667 12.7293 12.7417 12.538 12.725C12.346 12.7083 12.175 12.625 12.025 12.475ZM1.8 17.5C1.3 17.5 0.875 17.325 0.525 16.975C0.175 16.625 0 16.2 0 15.7V1.8C0 1.3 0.175 0.875 0.525 0.525C0.875 0.175 1.3 0 1.8 0H7.775C7.975 0 8.15 0.0706666 8.3 0.212C8.45 0.354 8.525 0.533333 8.525 0.75C8.525 0.966667 8.45 1.14567 8.3 1.287C8.15 1.429 7.975 1.5 7.775 1.5H1.8C1.73333 1.5 1.66667 1.53333 1.6 1.6C1.53333 1.66667 1.5 1.73333 1.5 1.8V15.7C1.5 15.7667 1.53333 15.8333 1.6 15.9C1.66667 15.9667 1.73333 16 1.8 16H7.775C7.975 16 8.15 16.0707 8.3 16.212C8.45 16.354 8.525 16.5333 8.525 16.75C8.525 16.9667 8.45 17.146 8.3 17.288C8.15 17.4293 7.975 17.5 7.775 17.5H1.8Z" fill="#EB2D4B"/>
</svg>
